<svg xmlns="http://www.w3.org/2000/svg" width="128" height="128" viewBox="0 0 128 128">
  <title>DISAPPOINTMENT</title>
  <g>
    <g>
      <ellipse cx="64" cy="64" rx="50.217" ry="48.209" transform="translate(-18.031 25.752) rotate(-20.002)" fill="#ffc700"/>
      <path d="M87.678,90.12c-25.226,20.944-63.295,4.443-63.295,4.443C37.17,110.333,59.614,116.9,80.488,109.3c26.062-9.486,39.807-37.457,30.7-62.476a46.577,46.577,0,0,0-4.282-8.781S111.778,70.109,87.678,90.12Z" fill="#ffb217"/>
      <g>
        <path d="M106.057,32.316c-17.394,5.84-36.438-5.205-36.438-5.205C93.868,54.788,123.45,26.476,106.057,32.316Z" fill="#702593"/>
        <path d="M59.159,27.166s-19.1,11.215-36.437,5.206C2.966,25.523,36.36,55.916,59.159,27.166Z" fill="#702593"/>
      </g>
      <ellipse cx="46.28" cy="58.215" rx="12.274" ry="14.49" fill="#e9f4ff"/>
      <path d="M53.857,60.927A7.578,7.578,0,1,0,46.28,68.65,7.651,7.651,0,0,0,53.857,60.927Z" fill="#702593"/>
      <path d="M48.334,63.081a2.057,2.057,0,1,0-2.054,2.158A2.109,2.109,0,0,0,48.334,63.081Z" fill="#e9f4ff"/>
      <ellipse cx="85.28" cy="58.215" rx="12.274" ry="14.49" fill="#e9f4ff"/>
      <path d="M92.857,60.927A7.578,7.578,0,1,0,85.28,68.65,7.651,7.651,0,0,0,92.857,60.927Z" fill="#702593"/>
      <path d="M87.334,63.081a2.057,2.057,0,1,0-2.054,2.158A2.109,2.109,0,0,0,87.334,63.081Z" fill="#e9f4ff"/>
      <path d="M81.813,96.822S78.25,82.756,64,82.756c-14.785,0-17.813,12.98-17.813,12.98S53.26,87.025,64,87.01C76.061,86.993,81.813,96.822,81.813,96.822Z" fill="#702593"/>
      <path d="M36.58,77.969a5.188,5.188,0,0,0-5.423-4.916,4.94,4.94,0,1,0,0,9.833A5.188,5.188,0,0,0,36.58,77.969Z" fill="#ff4c3d"/>
      <path d="M103.266,77.97c0-2.716-2.549-4.917-5.692-4.917s-5.692,2.2-5.692,4.917,2.548,4.916,5.692,4.916S103.266,80.685,103.266,77.97Z" fill="#ff4c3d"/>
      <path d="M105.61,67.48s-11.7,12.461-4.753,22.287S123.781,84.238,105.61,67.48Z" fill="#e9f4ff"/>
      <path d="M43.414,96.024c-.045-2.264-2.8-3.374-4.351-3.6s-4.883-.355-5.549,2.486a3.033,3.033,0,0,0,2.176,3.64C41.336,100.507,43.458,98.288,43.414,96.024Z" fill="#ffb217"/>
      <path d="M105.562,57.02c.236-3.4-1.477-7.078-4.153-4.714a6.448,6.448,0,0,0-1.828,5.6C100.054,61.544,105.267,61.268,105.562,57.02Z" fill="#ffb217"/>
      <path d="M28,46.513c-1.47-3.368-4.7-.32-5.809,2.207,0,0-3.006,5.945,1.334,7.225S29.466,49.882,28,46.513Z" fill="#f7ebd5"/>
      <path d="M107.044,89.471c3.75-.331,3.64-4.412,3.64-4.412C110.794,81.365,103.3,89.8,107.044,89.471Z" fill="#cbe2ff"/>
    </g>
    <g>
      <path d="M80.659,109.771a.5.5,0,1,0-.342-.94c-18,6.553-37.6,2.763-51.162-9.886a.5.5,0,1,0-.681.731,49.75,49.75,0,0,0,34.083,13.317A52.893,52.893,0,0,0,80.659,109.771Z"/>
      <path d="M16.811,81.676a.509.509,0,0,0,.171-.03.5.5,0,0,0,.3-.641A45.908,45.908,0,0,1,14.5,65.686a.5.5,0,0,0-.5-.5H14a.5.5,0,0,0-.495.5,46.9,46.9,0,0,0,2.84,15.652A.5.5,0,0,0,16.811,81.676Z"/>
      <path d="M47.683,19.169a50.14,50.14,0,0,1,46.648,6.173.5.5,0,0,0,.293.1.5.5,0,0,0,.293-.906,51.143,51.143,0,0,0-47.576-6.3.5.5,0,1,0,.342.94Z"/>
      <path d="M113.508,56.5a.6.6,0,0,0,.073-.005.5.5,0,0,0,.423-.567,47.168,47.168,0,0,0-2.346-9.271.5.5,0,1,0-.939.342,46.21,46.21,0,0,1,2.3,9.073A.5.5,0,0,0,113.508,56.5Z"/>
      <path d="M34.761,53.7a.5.5,0,0,0,.477-.35c1.7-5.46,6.142-9.128,11.042-9.128a10.447,10.447,0,0,1,6.551,2.366.5.5,0,0,0,.623-.781,11.428,11.428,0,0,0-7.174-2.585c-5.34,0-10.161,3.95-12,9.829a.5.5,0,0,0,.328.627A.524.524,0,0,0,34.761,53.7Z"/>
      <path d="M109.705,91.2c-2.233,1.555-5.784,2.034-8.439-1.719a.5.5,0,1,0-.817.578,6.982,6.982,0,0,0,5.748,3.3,7.2,7.2,0,0,0,4.078-1.332c6.077-4.226,4.869-13.072.648-19.249a.5.5,0,1,0-.826.564C115.391,81.079,113.846,88.318,109.705,91.2Z"/>
    </g>
  </g>
</svg>
